<svg xmlns="http://www.w3.org/2000/svg" viewBox="0 0 24 24" shape-rendering="crispEdges">
  <!-- background -->
  <rect width="24" height="24" fill="#181818"/>

  <!-- salmon/orange glyphs (top — px/cc letters) -->
  <rect x="6" y="3" width="4" height="1" fill="#d87756"/>
  <rect x="15" y="3" width="4" height="1" fill="#d87756"/>
  <rect x="6" y="4" width="1" height="1" fill="#d87756"/>
  <rect x="9" y="4" width="1" height="1" fill="#d87756"/>
  <rect x="11" y="4" width="1" height="1" fill="#d87756"/>
  <rect x="13" y="4" width="1" height="1" fill="#d87756"/>
  <rect x="15" y="4" width="1" height="1" fill="#d87756"/>
  <rect x="6" y="5" width="4" height="1" fill="#d87756"/>
  <rect x="12" y="5" width="1" height="1" fill="#d87756"/>
  <rect x="15" y="5" width="1" height="1" fill="#d87756"/>
  <rect x="6" y="6" width="1" height="1" fill="#d87756"/>
  <rect x="11" y="6" width="1" height="1" fill="#d87756"/>
  <rect x="13" y="6" width="1" height="1" fill="#d87756"/>
  <rect x="15" y="6" width="4" height="1" fill="#d87756"/>

  <!-- frog body — bright green -->
  <rect x="10" y="10" width="3" height="1" fill="#61c84a"/>
  <rect x="10" y="11" width="1" height="1" fill="#61c84a"/>
  <rect x="13" y="11" width="2" height="1" fill="#61c84a"/>
  <rect x="9" y="12" width="1" height="1" fill="#61c84a"/>
  <rect x="13" y="12" width="2" height="1" fill="#61c84a"/>
  <rect x="10" y="13" width="1" height="1" fill="#61c84a"/>
  <rect x="12" y="13" width="1" height="1" fill="#61c84a"/>
  <rect x="9" y="14" width="10" height="1" fill="#61c84a"/>
  <rect x="10" y="15" width="1" height="1" fill="#61c84a"/>
  <rect x="18" y="15" width="1" height="1" fill="#61c84a"/>

  <!-- frog body — medium green -->
  <rect x="15" y="10" width="1" height="1" fill="#3fb949"/>
  <rect x="16" y="10" width="1" height="1" fill="#3fb949"/>
  <rect x="9" y="11" width="1" height="1" fill="#3fb949"/>
  <rect x="12" y="11" width="1" height="1" fill="#3fb949"/>
  <rect x="15" y="11" width="1" height="1" fill="#3fb949"/>
  <rect x="17" y="11" width="1" height="1" fill="#3fb949"/>
  <rect x="8" y="12" width="1" height="1" fill="#3fb949"/>
  <rect x="7" y="13" width="1" height="1" fill="#3fb949"/>
  <rect x="13" y="13" width="3" height="1" fill="#3fb949"/>
  <rect x="17" y="13" width="1" height="1" fill="#3fb949"/>
  <rect x="7" y="14" width="2" height="1" fill="#3fb949"/>
  <rect x="7" y="15" width="4" height="1" fill="#3fb949"/>
  <rect x="11" y="15" width="1" height="1" fill="#3fb949"/>
  <rect x="7" y="16" width="4" height="1" fill="#3fb949"/>
  <rect x="8" y="17" width="3" height="1" fill="#3fb949"/>
  <rect x="9" y="18" width="2" height="1" fill="#3fb949"/>
  <rect x="17" y="18" width="1" height="1" fill="#3fb949"/>
  <rect x="9" y="19" width="2" height="1" fill="#3fb949"/>
  <rect x="17" y="19" width="1" height="1" fill="#3fb949"/>
  <rect x="9" y="20" width="3" height="1" fill="#3fb949"/>
  <rect x="17" y="20" width="2" height="1" fill="#3fb949"/>

  <!-- frog body — dark green shadow -->
  <rect x="7" y="12" width="1" height="1" fill="#307444"/>
  <rect x="6" y="13" width="1" height="1" fill="#307444"/>
  <rect x="6" y="14" width="1" height="1" fill="#307444"/>
  <rect x="5" y="15" width="1" height="1" fill="#307444"/>
  <rect x="5" y="16" width="1" height="1" fill="#307444"/>
  <rect x="5" y="17" width="2" height="1" fill="#307444"/>
  <rect x="5" y="18" width="2" height="1" fill="#307444"/>
  <rect x="5" y="19" width="2" height="1" fill="#307444"/>
  <rect x="5" y="20" width="3" height="1" fill="#307444"/>

  <!-- frog body — mid-dark green -->
  <rect x="6" y="15" width="1" height="1" fill="#2e9635"/>
  <rect x="6" y="16" width="1" height="1" fill="#2e9635"/>
  <rect x="7" y="17" width="1" height="1" fill="#2e9635"/>
  <rect x="7" y="19" width="1" height="1" fill="#2e9635"/>
  <rect x="9" y="20" width="1" height="1" fill="#2e9635"/>
  <rect x="16" y="20" width="1" height="1" fill="#2e9635"/>

  <!-- eyes — white highlight -->
  <rect x="11" y="11" width="1" height="1" fill="#ffffff"/>
  <rect x="16" y="11" width="1" height="1" fill="#ffffff"/>
  <rect x="10" y="12" width="1" height="1" fill="#ffffff"/>
  <rect x="12" y="12" width="1" height="1" fill="#ffffff"/>
  <rect x="15" y="12" width="1" height="1" fill="#ffffff"/>
  <rect x="17" y="12" width="1" height="1" fill="#ffffff"/>
  <rect x="11" y="13" width="1" height="1" fill="#ffffff"/>
  <rect x="16" y="13" width="1" height="1" fill="#ffffff"/>

  <!-- eyes — black pupils -->
  <rect x="11" y="12" width="1" height="1" fill="#000000"/>
  <rect x="16" y="12" width="1" height="1" fill="#000000"/>

  <!-- nose — pink -->
  <rect x="9" y="13" width="1" height="1" fill="#e891a1"/>

  <!-- belly — cream/light yellow -->
  <rect x="12" y="15" width="6" height="1" fill="#ebdfa3"/>
  <rect x="11" y="16" width="8" height="1" fill="#ebdfa3"/>
  <rect x="12" y="17" width="5" height="1" fill="#ebdfa3"/>
  <rect x="13" y="18" width="3" height="1" fill="#ebdfa3"/>

  <!-- belly — medium yellow shadow -->
  <rect x="17" y="17" width="2" height="1" fill="#d3c681"/>
  <rect x="11" y="17" width="1" height="1" fill="#d3c681"/>
  <rect x="7" y="18" width="2" height="1" fill="#d3c681"/>
  <rect x="11" y="18" width="2" height="1" fill="#d3c681"/>
  <rect x="16" y="18" width="1" height="1" fill="#d3c681"/>
  <rect x="11" y="19" width="1" height="1" fill="#d3c681"/>
  <rect x="16" y="19" width="1" height="1" fill="#d3c681"/>

  <!-- belly — darker yellow shadow -->
  <rect x="8" y="19" width="1" height="1" fill="#c5b564"/>
  <rect x="12" y="19" width="4" height="1" fill="#c5b564"/>
</svg>
